<svg xmlns="http://www.w3.org/2000/svg" width="28.171" height="26.546" viewBox="0 0 28.171 26.546">
  <g id="Group_1302" data-name="Group 1302" transform="translate(40.002 33.004)">
    <path id="Path_489" data-name="Path 489" d="M174.034,206.1a.834.834,0,0,1-.478-.15,49.907,49.907,0,0,1-6.162-5.057,33.777,33.777,0,0,1-4.212-4.914,20.987,20.987,0,0,1-2.433-4.536,11.513,11.513,0,0,1-.8-3.945v-.007a7.922,7.922,0,0,1,2.238-5.683,7.339,7.339,0,0,1,4.411-2.186c.434-.042.879-.065,1.287-.065a8.1,8.1,0,0,1,3.97.91,8.7,8.7,0,0,1,2.178,1.74,8.693,8.693,0,0,1,2.178-1.74,8.1,8.1,0,0,1,3.97-.91c.408,0,.854.022,1.288.065a7.337,7.337,0,0,1,4.41,2.186,7.924,7.924,0,0,1,2.238,5.683v.007a11.506,11.506,0,0,1-.8,3.945,20.987,20.987,0,0,1-2.433,4.536,33.787,33.787,0,0,1-4.212,4.914,49.923,49.923,0,0,1-6.162,5.057A.825.825,0,0,1,174.034,206.1Zm-1.076-14.657c.01,2.137-4.7,1.562-2.819,4.289,1.438,1.123,10.769-5.41,14.522-2.762-.127-.088-21.725,6.911-19.1,3.327,1.886-2.726-.613-5.623-.6-7.764.136-3.09,17.635-2.042,17.28-2.042-2.133-.094,2.765-.42,2.465-.414h-.04c-.305,0-8.829,4.773-8.973,4.5,0,0-.34,1.044-.5.862-1.064-1.54.242.624-1.891.72-.355,0,.867-1.618.486-1.581C170.718,191.021,172.822,188.351,172.958,191.443Z" transform="translate(-199.949 -212.558)" fill="#fd9c01"/>
  </g>
</svg>
